<?xml version="1.0" encoding="UTF-8"?>
<svg xmlns="http://www.w3.org/2000/svg" xmlns:xlink="http://www.w3.org/1999/xlink" viewBox="0 0 93.29 93.29">
  <defs>
    <style>
      .cls-1 {
        fill: none;
      }

      .cls-2 {
        fill: #282828;
      }

      .cls-2, .cls-3, .cls-4, .cls-5 {
        mix-blend-mode: overlay;
      }

      .cls-6 {
        fill: url(#linear-gradient-2);
      }

      .cls-7 {
        fill: #f9aec3;
      }

      .cls-8 {
        fill: #8c5115;
      }

      .cls-9 {
        fill: url(#linear-gradient);
      }

      .cls-10 {
        fill: #feccdb;
      }

      .cls-11 {
        fill: #9d6b2e;
      }

      .cls-12 {
        fill: #91570e;
      }

      .cls-13 {
        isolation: isolate;
      }

      .cls-14, .cls-15 {
        fill: #fff;
      }

      .cls-3 {
        fill: #fcbed2;
      }

      .cls-15 {
        opacity: 0;
      }

      .cls-4 {
        opacity: .67;
      }

      .cls-16 {
        clip-path: url(#clippath);
      }

      .cls-5 {
        fill: url(#linear-gradient-3);
        opacity: .43;
      }
    </style>
    <linearGradient id="linear-gradient" x1="581.5" y1="1204.61" x2="581.6" y2="1234.92" gradientTransform="translate(-56.63 -1284.83) rotate(21.38)" gradientUnits="userSpaceOnUse">
      <stop offset="0" stop-color="#fe87bf"/>
      <stop offset=".09" stop-color="#f57eb7"/>
      <stop offset=".47" stop-color="#d35e9a"/>
      <stop offset=".79" stop-color="#be4b89"/>
      <stop offset="1" stop-color="#b74483"/>
    </linearGradient>
    <linearGradient id="linear-gradient-2" x1="571.16" y1="1200.46" x2="569.76" y2="1206.66" gradientTransform="translate(-56.63 -1284.83) rotate(21.38)" gradientUnits="userSpaceOnUse">
      <stop offset="0" stop-color="#fe58a5"/>
      <stop offset="1" stop-color="#b74483"/>
    </linearGradient>
    <clipPath id="clippath">
      <path class="cls-1" d="M48.55,11.31l-2.68,15.37c2.25,1.15,4.9,2.36,7.94,3.49,2.77,1.03,5.34,1.8,7.62,2.38,3.02-4.3,6.04-8.59,9.07-12.89-1.62-1.52-5.05-4.38-10.29-6.35-5.11-1.92-9.45-2.05-11.66-1.99Z"/>
    </clipPath>
    <linearGradient id="linear-gradient-3" x1="581.79" y1="1237.47" x2="581.27" y2="1177.57" gradientTransform="translate(-56.63 -1284.83) rotate(21.38)" gradientUnits="userSpaceOnUse">
      <stop offset="0" stop-color="#fff" stop-opacity="0"/>
      <stop offset=".17" stop-color="#fff" stop-opacity=".01"/>
      <stop offset=".3" stop-color="#fff" stop-opacity=".05"/>
      <stop offset=".42" stop-color="#fff" stop-opacity=".12"/>
      <stop offset=".53" stop-color="#fff" stop-opacity=".21"/>
      <stop offset=".64" stop-color="#fff" stop-opacity=".32"/>
      <stop offset=".74" stop-color="#fff" stop-opacity=".47"/>
      <stop offset=".84" stop-color="#fff" stop-opacity=".64"/>
      <stop offset=".93" stop-color="#fff" stop-opacity=".83"/>
      <stop offset="1" stop-color="#fff"/>
    </linearGradient>
  </defs>
  <g class="cls-13">
    <g id="Layer_2" data-name="Layer 2">
      <g id="Layer_1-2" data-name="Layer 1">
        <g>
          <rect class="cls-15" x="10.65" y="10.65" width="72" height="72" transform="translate(20.21 -13.79) rotate(21.38)"/>
          <g>
            <path class="cls-10" d="M72.84,57.46c.17-.51.34-.98.49-1.45.1-.3.23-.71.3-1.16.19-1.32.39-2.68.32-4.15-.08-1.57-.39-3-.93-4.37-.52-1.29-1.2-2.5-2.03-3.59-1.1-1.45-2.49-2.7-4.24-3.84-1.03-.67-2.01-1.18-3-1.56-.41-.16-.82-.3-1.23-.41l-.08-.02c-.58-.16-1.19-.33-1.83-.44,1.88-4.16,4.27-7.23,6.16-9.28-7.22-2.83-14.45-5.66-21.67-8.48-.1,2.82-.54,6.63-1.98,10.87-.24-.14-.48-.27-.7-.4-.15-.08-.29-.16-.43-.24-.42-.24-.87-.45-1.37-.65-.58-.23-1.15-.4-1.58-.52-1.13-.33-2.34-.54-3.7-.66-1.1-.09-2.14-.08-3.16.04-1.75.21-3.39.69-4.87,1.45-1.16.59-2.24,1.36-3.22,2.27-.98.91-1.77,1.87-2.43,2.93-.55.88-1.11,1.84-1.55,2.89-.54,1.29-.95,2.67-1.27,4.22-.24,1.18-.38,2.44-.4,3.74-.03,1.82.1,3.63.41,5.39l.07.37c.19,1.1.39,2.24.7,3.37.54,1.99,1.15,3.9,1.8,5.69.74,2.01,1.6,3.94,2.41,5.75.47,1.04.99,2.04,1.5,3.02l.29.56c.61,1.18,1.29,2.4,2.07,3.74.65,1.1,1.34,2.18,2.01,3.22l.23.35c.64,1,1.35,1.96,2.1,2.85.03.03.05.06.08.09.25.31.66.82,1.38,1.1.12.05.25.09.37.12.65.15,1.21.08,1.58.03,2.02-.27,3.97-.77,5.77-1.27,1.62-.45,3.2-.95,4.66-1.43,1.98-.65,3.87-1.39,5.3-1.97.94-.38,1.86-.81,2.75-1.22.49-.23,1-.46,1.49-.68,1.05-.47,2.04-1.01,2.99-1.54.2-.11.4-.22.61-.33,1.55-.85,3.11-1.86,4.64-3.02,1.44-1.09,2.97-2.27,4.34-3.74,1.23-1.32,2.15-2.48,2.89-3.67.66-1.05,1.18-2.13,1.64-3.09l.02-.04c.03-.07.06-.13.08-.2l.22-.63Z"/>
            <path class="cls-9" d="M34.54,77.43s-.12-.14-.18-.21c-.04-.05-.07-.09-.11-.14-.67-.8-1.3-1.66-1.88-2.56l-.23-.35c-.65-1.02-1.33-2.07-1.94-3.12-.76-1.29-1.41-2.48-2.01-3.61l-.3-.56c-.49-.94-1-1.9-1.43-2.86-.79-1.76-1.63-3.63-2.33-5.55-.63-1.7-1.21-3.53-1.73-5.45-.27-1-.46-2.06-.64-3.09l-.07-.38c-.28-1.58-.4-3.2-.37-4.83.02-1.13.14-2.21.34-3.21.28-1.37.64-2.57,1.1-3.68.57-1.37.85-2.06,1.35-2.48,1.44-1.23,3.86-.6,4.7-.37,6.5,1.71,9.27,11.31,16.9,14.34,7.28,2.89,15.69-1.52,21.3,1.39,1.66.86,3.92,2.8,3.71,3.75-.01.06-.07.34-.18.68-.15.46-.31.92-.48,1.41l-.2.58c-.43.89-.91,1.88-1.47,2.79-.64,1.02-1.44,2.04-2.55,3.22-1.21,1.3-2.63,2.39-3.97,3.4-1.42,1.07-2.86,2-4.29,2.78-.21.11-.41.23-.62.34-.9.5-1.83,1.01-2.76,1.42-.52.23-1.06.48-1.53.7-.86.4-1.74.81-2.62,1.16-1.38.56-3.22,1.29-5.11,1.9-1.34.44-2.7.91-4.53,1.39-1.51.4-3.5.86-5.88,1.22Z"/>
            <path class="cls-6" d="M27.9,44.24c-3.57-2.48-5.39-5.68-5.11-6.43.02-.06.22-.54.39-.94.23-.54.33-.76.51-1.02.07-.11.22-.33.44-.53.66-.61,1.52-.69,1.99-.73.48-.04.84,0,1.26.05.64.08,1.14.21,1.44.3.23.07.62.18,1.09.37.3.13.78.35,1.41.75.42.27,1.35.9,2.75,2.34.44.46.77.84,1.39,1.55,1.95,2.23,2.13,2.65,3.56,4.24,1.44,1.59,2.35,2.37,2.82,2.75.34.28,1.08.86,1.97,1.39,1.01.6,2.8,1.47,5.41,1.82-4.33-.33-14.91-1.46-21.34-5.93Z"/>
            <path class="cls-8" d="M43.41,28.36c2.77,1.07,5.91,2.12,9.39,3.03,3.38.89,6.55,1.5,9.41,1.93.1.05.14.17.1.27-.04.1-.16.16-.27.12-2.76-.26-5.99-.77-9.54-1.7-3.56-.94-6.63-2.1-9.16-3.22-.11-.03-.17-.13-.16-.24.02-.11.11-.18.22-.18Z"/>
            <path class="cls-8" d="M44.2,26.05c2.46,1.67,5.27,3.4,8.46,5.08,3.09,1.63,6.04,2.95,8.73,4.01.08.07.1.2.04.28-.06.09-.19.12-.29.06-2.62-.88-5.66-2.11-8.91-3.82-3.25-1.72-5.98-3.54-8.19-5.22-.1-.05-.14-.17-.1-.27.04-.1.15-.15.25-.12Z"/>
            <path class="cls-8" d="M42.82,29.34c1.74,1.46,4.55,3.49,8.45,4.96,3.96,1.5,7.46,1.84,9.75,1.88.09.06.12.18.07.28-.05.1-.17.14-.28.09-2.13.06-5.68-.1-9.74-1.63-4.04-1.52-6.81-3.73-8.37-5.18-.1-.04-.16-.15-.13-.25.03-.1.13-.17.24-.15Z"/>
            <path class="cls-2" d="M27.58,57.09c-.11-.04-.17-.12-.2-.16,0,0,0,0-.01-.01-.11-.13-.21-.27-.3-.41l-.03-.05c-.1-.15-.2-.31-.29-.47-.11-.19-.21-.37-.3-.54l-.04-.08c-.07-.14-.15-.29-.22-.44-.12-.26-.24-.54-.35-.83-.1-.26-.18-.54-.26-.82-.04-.16-.07-.33-.1-.49v-.05c-.05-.25-.07-.52-.07-.78,0-.19.02-.37.06-.54.05-.23.11-.43.18-.61.06-.15.15-.29.23-.42.09-.15.21-.29.35-.42.14-.13.3-.24.47-.33.21-.11.45-.18.71-.21.15-.02.3-.02.46,0,.2.02.37.05.54.1.06.02.14.04.23.08.07.03.14.06.2.09.02.01.04.02.06.04.07.04.15.08.23.14.16.12.3.25.41.38.14.17.24.31.32.46l.03.05c.04.08.09.16.13.25.06-.03.11-.05.16-.07.15-.06.32-.11.54-.15.24-.04.49-.05.76-.02.12.01.23.05.34.08h.01c.06.02.12.04.18.06.14.06.28.13.43.23.25.16.46.35.62.56.12.16.22.33.29.52.08.2.12.41.14.63.01.21-.02.41-.05.6,0,.07-.03.13-.04.17-.02.07-.05.14-.07.21l-.03.09s0,.02-.01.03h0c-.07.14-.14.3-.24.45-.11.17-.24.34-.42.53-.2.21-.42.38-.63.54-.22.17-.45.31-.67.44-.03.02-.06.03-.09.05-.14.08-.28.16-.43.22-.07.03-.15.07-.22.1-.13.06-.26.12-.4.18-.21.08-.48.19-.77.29-.21.07-.44.14-.68.21-.26.07-.54.14-.84.18-.05,0-.14.02-.23,0-.02,0-.04-.01-.05-.02Z"/>
            <path class="cls-2" d="M47.03,62.04c-.06-.02-.09-.06-.11-.09,0,0,0,0,0,0-.06-.07-.12-.15-.17-.23l-.02-.03c-.05-.08-.11-.17-.16-.26-.06-.11-.12-.21-.17-.3l-.02-.05c-.04-.08-.08-.16-.12-.24-.07-.14-.13-.3-.19-.46-.05-.14-.1-.3-.14-.46-.02-.09-.04-.18-.06-.27v-.03c-.03-.14-.04-.29-.04-.43,0-.1.01-.21.03-.3.03-.12.06-.24.1-.34.04-.08.08-.16.12-.23.05-.09.12-.16.19-.24.08-.07.17-.13.26-.18.12-.06.25-.1.39-.12.08,0,.16-.01.25,0,.11,0,.21.03.3.05.03.01.08.02.13.04.04.02.08.03.11.05.01,0,.02.01.03.02.04.02.08.05.13.08.09.07.16.14.23.21.08.09.13.17.18.25v.03s.06.09.08.14c.03-.01.06-.03.09-.04.08-.03.18-.06.3-.08.13-.02.27-.03.42-.01.07,0,.13.02.19.04h0s.07.02.1.03c.08.03.16.07.24.13.14.09.25.19.34.31.07.09.12.18.16.29.04.11.07.22.08.35,0,.12,0,.23-.03.33,0,.04-.02.07-.02.09-.01.04-.03.08-.04.12l-.02.05s0,.01,0,.02h0c-.04.08-.08.17-.13.25-.06.1-.13.19-.23.29-.11.12-.23.21-.35.3-.12.09-.25.17-.37.24-.02,0-.03.02-.05.03-.08.04-.16.09-.24.12-.04.02-.08.04-.12.05-.07.03-.14.07-.22.1-.11.05-.27.11-.43.16-.12.04-.24.08-.37.11-.14.04-.3.08-.46.1-.03,0-.08.01-.13,0-.01,0-.02,0-.03,0Z"/>
            <path class="cls-2" d="M61.96,56.53c-.06-.02-.09-.06-.11-.09,0,0,0,0,0,0-.06-.07-.12-.15-.17-.23l-.02-.03c-.05-.08-.11-.17-.16-.26-.06-.11-.12-.21-.17-.3l-.02-.05c-.04-.08-.08-.16-.12-.24-.07-.14-.13-.3-.19-.46-.05-.14-.1-.3-.14-.46-.02-.09-.04-.18-.06-.27v-.03c-.03-.14-.04-.29-.04-.43,0-.1.01-.21.03-.3.03-.12.06-.24.1-.34.04-.08.08-.16.12-.23.05-.09.12-.16.19-.24.08-.07.17-.13.26-.18.12-.06.25-.1.39-.12.08,0,.16-.01.25,0,.11,0,.21.03.3.05.03.01.08.02.13.04.04.02.08.03.11.05.01,0,.02.01.03.02.04.02.08.05.13.08.09.07.16.14.23.21.08.09.13.17.18.25v.03s.06.09.08.14c.03-.01.06-.03.09-.04.08-.03.18-.06.3-.08.13-.02.27-.03.42-.01.07,0,.13.02.19.04h0s.07.02.1.03c.08.03.16.07.24.13.14.09.25.19.34.31.07.09.12.18.16.29.04.11.07.22.08.35,0,.12,0,.23-.03.33,0,.04-.02.07-.02.09-.01.04-.03.08-.04.12l-.02.05s0,.01,0,.02h0c-.04.08-.08.17-.13.25-.06.1-.13.19-.23.29-.11.12-.23.21-.35.3-.12.09-.25.17-.37.24-.02,0-.03.02-.05.03-.08.04-.16.09-.24.12-.04.02-.08.04-.12.05-.07.03-.14.07-.22.1-.11.05-.27.11-.43.16-.12.04-.24.08-.37.11-.14.04-.3.08-.46.1-.03,0-.08.01-.13,0-.01,0-.02,0-.03,0Z"/>
            <path class="cls-2" d="M49.68,69.7c-.06-.02-.09-.06-.11-.09,0,0,0,0,0,0-.06-.07-.12-.15-.17-.23l-.02-.03c-.05-.08-.11-.17-.16-.26-.06-.11-.12-.21-.17-.3l-.02-.05c-.04-.08-.08-.16-.12-.24-.07-.14-.13-.3-.19-.46-.05-.14-.1-.3-.14-.46-.02-.09-.04-.18-.06-.27v-.03c-.03-.14-.04-.29-.04-.43,0-.1.01-.21.03-.3.03-.12.06-.24.1-.34.04-.08.08-.16.12-.23.05-.09.12-.16.19-.24.08-.07.17-.13.26-.18.12-.06.25-.1.39-.12.08,0,.16-.01.25,0,.11,0,.21.03.3.05.03.01.08.02.13.04.04.02.08.03.11.05.01,0,.02.01.03.02.04.02.08.05.13.08.09.07.16.14.23.21.08.09.13.17.18.25v.03s.06.09.08.14c.03-.01.06-.03.09-.04.08-.03.18-.06.3-.08.13-.02.27-.03.42-.01.07,0,.13.02.19.04h0s.07.02.1.03c.08.03.16.07.24.13.14.09.25.19.34.31.07.09.12.18.16.29.04.11.07.22.08.35,0,.12,0,.23-.03.33,0,.04-.02.07-.02.09-.01.04-.03.08-.04.12l-.02.05s0,.01,0,.02h0c-.04.08-.08.17-.13.25-.06.1-.13.19-.23.29-.11.12-.23.21-.35.3-.12.09-.25.17-.37.24-.02,0-.03.02-.05.03-.08.04-.16.09-.24.12-.04.02-.08.04-.12.05-.07.03-.14.07-.22.1-.11.05-.27.11-.43.16-.12.04-.24.08-.37.11-.14.04-.3.08-.46.1-.03,0-.08.01-.13,0-.01,0-.02,0-.03,0Z"/>
            <path class="cls-2" d="M33.53,61.59c-.06-.02-.09-.06-.11-.09,0,0,0,0,0,0-.06-.07-.12-.15-.17-.23l-.02-.03c-.05-.08-.11-.17-.16-.26-.06-.11-.12-.21-.17-.3l-.02-.05c-.04-.08-.08-.16-.12-.24-.07-.14-.13-.3-.19-.46-.05-.14-.1-.3-.14-.46-.02-.09-.04-.18-.06-.27v-.03c-.03-.14-.04-.29-.04-.43,0-.1.01-.21.03-.3.03-.12.06-.24.1-.34.04-.08.08-.16.12-.23.05-.09.12-.16.19-.24.08-.07.17-.13.26-.18.12-.06.25-.1.39-.12.08,0,.16-.01.25,0,.11,0,.21.03.3.05.03.01.08.02.13.04.04.02.08.03.11.05.01,0,.02.01.03.02.04.02.08.05.13.08.09.07.16.14.23.21.08.09.13.17.18.25v.03s.06.09.08.14c.03-.01.06-.03.09-.04.08-.03.18-.06.3-.08.13-.02.27-.03.42-.01.07,0,.13.02.19.04h0s.07.02.1.03c.08.03.16.07.24.13.14.09.25.19.34.31.07.09.12.18.16.29.04.11.07.22.08.35,0,.12,0,.23-.03.33,0,.04-.02.07-.02.09-.01.04-.03.08-.04.12l-.02.05s0,.01,0,.02h0c-.04.08-.08.17-.13.25-.06.1-.13.19-.23.29-.11.12-.23.21-.35.3-.12.09-.25.17-.37.24-.02,0-.03.02-.05.03-.08.04-.16.09-.24.12-.04.02-.08.04-.12.05-.07.03-.14.07-.22.1-.11.05-.27.11-.43.16-.12.04-.24.08-.37.11-.14.04-.3.08-.46.1-.03,0-.08.01-.13,0-.01,0-.02,0-.03,0Z"/>
            <path class="cls-2" d="M36.3,50.36c-.06-.02-.09-.06-.11-.09,0,0,0,0,0,0-.06-.07-.12-.15-.17-.23l-.02-.03c-.05-.08-.11-.17-.16-.26-.06-.11-.12-.21-.17-.3l-.02-.05c-.04-.08-.08-.16-.12-.24-.07-.14-.13-.3-.19-.46-.05-.14-.1-.3-.14-.46-.02-.09-.04-.18-.06-.27v-.03c-.03-.14-.04-.29-.04-.43,0-.1.01-.21.03-.3.03-.12.06-.24.1-.34.04-.08.08-.16.12-.23.05-.09.12-.16.19-.24.08-.07.17-.13.26-.18.12-.06.25-.1.39-.12.08,0,.16-.01.25,0,.11,0,.21.03.3.05.03.01.08.02.13.04.04.02.08.03.11.05.01,0,.02.01.03.02.04.02.08.05.13.08.09.07.16.14.23.21.08.09.13.17.18.25v.03s.06.09.08.14c.03-.01.06-.03.09-.04.08-.03.18-.06.3-.08.13-.02.27-.03.42-.01.07,0,.13.02.19.04h0s.07.02.1.03c.08.03.16.07.24.13.14.09.25.19.34.31.07.09.12.18.16.29.04.11.07.22.08.35,0,.12,0,.23-.03.33,0,.04-.02.07-.02.09-.01.04-.03.08-.04.12l-.02.05s0,.01,0,.02h0c-.04.08-.08.17-.13.25-.06.1-.13.19-.23.29-.11.12-.23.21-.35.3-.12.09-.25.17-.37.24-.02,0-.03.02-.05.03-.08.04-.16.09-.24.12-.04.02-.08.04-.12.05-.07.03-.14.07-.22.1-.11.05-.27.11-.43.16-.12.04-.24.08-.37.11-.14.04-.3.08-.46.1-.03,0-.08.01-.13,0-.01,0-.02,0-.03,0Z"/>
            <path class="cls-2" d="M25.85,41.14c-.06-.02-.09-.06-.11-.09,0,0,0,0,0,0-.06-.07-.12-.15-.17-.23l-.02-.03c-.05-.08-.11-.17-.16-.26-.06-.11-.12-.21-.17-.3l-.02-.05c-.04-.08-.08-.16-.12-.24-.07-.14-.13-.3-.19-.46-.05-.14-.1-.3-.14-.46-.02-.09-.04-.18-.06-.27v-.03c-.03-.14-.04-.29-.04-.43,0-.1.01-.21.03-.3.03-.12.06-.24.1-.34.04-.08.08-.16.12-.23.05-.09.12-.16.19-.24.08-.07.17-.13.26-.18.12-.06.25-.1.39-.12.08,0,.16-.01.25,0,.11,0,.21.03.3.05.03.01.08.02.13.04.04.02.08.03.11.05.01,0,.02.01.03.02.04.02.08.05.13.08.09.07.16.14.23.21.08.09.13.17.18.25v.03s.06.09.08.14c.03-.01.06-.03.09-.04.08-.03.18-.06.3-.08.13-.02.27-.03.42-.01.07,0,.13.02.19.04h0s.07.02.1.03c.08.03.16.07.24.13.14.09.25.19.34.31.07.09.12.18.16.29.04.11.07.22.08.35,0,.12,0,.23-.03.33,0,.04-.02.07-.02.09-.01.04-.03.08-.04.12l-.02.05s0,.01,0,.02h0c-.04.08-.08.17-.13.25-.06.1-.13.19-.23.29-.11.12-.23.21-.35.3-.12.09-.25.17-.37.24-.02,0-.03.02-.05.03-.08.04-.16.09-.24.12-.04.02-.08.04-.12.05-.07.03-.14.07-.22.1-.11.05-.27.11-.43.16-.12.04-.24.08-.37.11-.14.04-.3.08-.46.1-.03,0-.08.01-.13,0-.01,0-.02,0-.03,0Z"/>
            <path class="cls-2" d="M38.94,74.31c-.06-.02-.09-.06-.11-.09,0,0,0,0,0,0-.06-.07-.12-.15-.17-.23l-.02-.03c-.05-.08-.11-.17-.16-.26-.06-.11-.12-.21-.17-.3l-.02-.05c-.04-.08-.08-.16-.12-.24-.07-.14-.13-.3-.19-.46-.05-.14-.1-.3-.14-.46-.02-.09-.04-.18-.06-.27v-.03c-.03-.14-.04-.29-.04-.43,0-.1.01-.21.03-.3.03-.12.06-.24.1-.34.04-.08.08-.16.12-.23.05-.09.12-.16.19-.24.08-.07.17-.13.26-.18.12-.06.25-.1.39-.12.08,0,.16-.01.25,0,.11,0,.21.03.3.05.03.01.08.02.13.04.04.02.08.03.11.05.01,0,.02.01.03.02.04.02.08.05.13.08.09.07.16.14.23.21.08.09.13.17.18.25v.03s.06.09.08.14c.03-.01.06-.03.09-.04.08-.03.18-.06.3-.08.13-.02.27-.03.42-.01.07,0,.13.02.19.04h0s.07.02.1.03c.08.03.16.07.24.13.14.09.25.19.34.31.07.09.12.18.16.29.04.11.07.22.08.35,0,.12,0,.23-.03.33,0,.04-.02.07-.02.09-.01.04-.03.08-.04.12l-.02.05s0,.01,0,.02h0c-.04.08-.08.17-.13.25-.06.1-.13.19-.23.29-.11.12-.23.21-.35.3-.12.09-.25.17-.37.24-.02,0-.03.02-.05.03-.08.04-.16.09-.24.12-.04.02-.08.04-.12.05-.07.03-.14.07-.22.1-.11.05-.27.11-.43.16-.12.04-.24.08-.37.11-.14.04-.3.08-.46.1-.03,0-.08.01-.13,0-.01,0-.02,0-.03,0Z"/>
            <g>
              <circle class="cls-3" cx="57.29" cy="61.3" r="4.4"/>
              <g>
                <path class="cls-14" d="M58.13,57.61s0,.07,0,.09c-.11.38-1.01.17-1.86.57-.95.45-1.31,1.42-1.77,1.29-.04-.01-.06-.03-.08-.05-.18-.24.61-1.42,1.72-1.87.83-.34,1.91-.3,2-.04Z"/>
                <ellipse class="cls-14" cx="53.99" cy="60.69" rx=".63" ry=".35" transform="translate(-22.2 88.85) rotate(-68.62)"/>
              </g>
            </g>
            <g>
              <circle class="cls-3" cx="34.59" cy="67.95" r="2.29"/>
              <g>
                <path class="cls-14" d="M35.03,66.03s0,.03,0,.05c-.06.2-.53.09-.97.3-.49.24-.68.74-.92.67-.02,0-.03-.01-.04-.02-.09-.13.32-.74.89-.97.43-.18.99-.16,1.04-.02Z"/>
                <ellipse class="cls-14" cx="32.87" cy="67.63" rx=".33" ry=".18" transform="translate(-42.09 73.59) rotate(-68.62)"/>
              </g>
            </g>
            <g>
              <path class="cls-14" d="M39.41,31.47c.07.16.05.31.03.42-.29,1.83-4.59,1.36-8.3,3.74-4.13,2.65-5.25,7.35-7.45,7.01-.2-.03-.3-.09-.38-.17-.96-1.01,2.01-6.93,6.87-9.68,3.64-2.06,8.68-2.51,9.23-1.33Z"/>
              <ellipse class="cls-14" cx="22.02" cy="48.14" rx="2.94" ry="1.63" transform="translate(-30.05 57.65) rotate(-75.78)"/>
            </g>
            <g>
              <circle class="cls-3" cx="41.87" cy="64.79" r="2.29"/>
              <g>
                <path class="cls-14" d="M42.31,62.87s0,.03,0,.05c-.06.2-.53.09-.97.3-.49.24-.68.74-.92.67-.02,0-.03-.01-.04-.02-.09-.13.32-.74.89-.97.43-.18.99-.16,1.04-.02Z"/>
                <ellipse class="cls-14" cx="40.16" cy="64.47" rx=".33" ry=".18" transform="translate(-34.51 78.37) rotate(-68.62)"/>
              </g>
            </g>
            <g>
              <circle class="cls-3" cx="50.79" cy="53.84" r="2.29"/>
              <g>
                <path class="cls-14" d="M51.23,51.92s0,.03,0,.05c-.06.2-.53.09-.97.3-.49.24-.68.74-.92.67-.02,0-.03-.01-.04-.02-.09-.13.32-.74.89-.97.43-.18.99-.16,1.04-.02Z"/>
                <ellipse class="cls-14" cx="49.07" cy="53.52" rx=".33" ry=".18" transform="translate(-18.65 79.71) rotate(-68.62)"/>
              </g>
            </g>
            <g>
              <circle class="cls-3" cx="39.62" cy="55.09" r="2.29"/>
              <g>
                <path class="cls-14" d="M40.06,53.17s0,.03,0,.05c-.06.2-.53.09-.97.3-.49.24-.68.74-.92.67-.02,0-.03-.01-.04-.02-.09-.13.32-.74.89-.97.43-.18.99-.16,1.04-.02Z"/>
                <ellipse class="cls-14" cx="37.91" cy="54.77" rx=".33" ry=".18" transform="translate(-26.92 70.11) rotate(-68.62)"/>
              </g>
            </g>
            <g>
              <circle class="cls-3" cx="31.66" cy="45.7" r="2.29"/>
              <g>
                <path class="cls-14" d="M32.1,43.78s0,.03,0,.05c-.06.2-.53.09-.97.3-.49.24-.68.74-.92.67-.02,0-.03-.01-.04-.02-.09-.13.32-.74.89-.97.43-.18.99-.16,1.04-.02Z"/>
                <ellipse class="cls-14" cx="29.94" cy="45.39" rx=".33" ry=".18" transform="translate(-23.24 56.72) rotate(-68.62)"/>
              </g>
            </g>
            <g>
              <circle class="cls-3" cx="24.98" cy="46.2" r="2.29"/>
              <g>
                <path class="cls-14" d="M25.42,44.28s0,.03,0,.05c-.06.2-.53.09-.97.3-.49.24-.68.74-.92.67-.02,0-.03-.01-.04-.02-.09-.13.32-.74.89-.97.43-.18.99-.16,1.04-.02Z"/>
                <ellipse class="cls-14" cx="23.26" cy="45.88" rx=".33" ry=".18" transform="translate(-27.94 50.82) rotate(-68.62)"/>
              </g>
            </g>
            <g>
              <path class="cls-11" d="M48.55,11.31l-2.68,15.37c2.25,1.15,4.9,2.36,7.94,3.49,2.77,1.03,5.34,1.8,7.62,2.38,3.02-4.3,6.04-8.59,9.07-12.89-1.62-1.52-5.05-4.38-10.29-6.35-5.11-1.92-9.45-2.05-11.66-1.99Z"/>
              <g class="cls-16">
                <path class="cls-12" d="M64.45,16.11c-.17.01-1.5.12-1.76.83-.22.64.66,1.07,1.08,2.37.48,1.47-.27,2.11.38,2.78.65.67,1.95.62,2.37.6,1.63-.07,3.59-1,3.68-2.53.12-2.13-3.46-4.2-5.76-4.05Z"/>
                <path class="cls-12" d="M47.96,10.48c-.78-.05-1.57.31-1.76.83-.22.64.66,1.07,1.08,2.37.48,1.47-.27,2.11.38,2.78.39.4,1.06.58,2.37.6,2.37.03,6.88-.46,6.86-1.98-.01-.88-1.55-1.98-2.88-2.27-.89-.19-.98.12-1.85-.03-2.03-.34-2.55-2.2-4.2-2.3Z"/>
                <path class="cls-12" d="M48.35,21.5c-.78-.13-1.63.13-1.9.62-.32.6.51,1.11.74,2.42.26,1.49-.59,2.02-.03,2.75.47.61,1.53.93,2.31.84,1.1-.13,1-1.03,1.99-1.18,1.26-.19,2.06,1.18,3.57,1.07.77-.06,1.54-.48,1.66-1.08.18-.93-1.29-2.1-2.58-2.52-.87-.29-1,.01-1.87-.23-2-.55-2.25-2.42-3.9-2.7Z"/>
                <path class="cls-12" d="M57.26,21.94c-.08.7-.83,1.32-1.42,1.2-.58-.12-.54-.87-1.6-1.82-.88-.79-1.58-.87-1.55-1.16.04-.47,1.54-.83,2.77-.35.89.35,1.91,1.23,1.8,2.14Z"/>
                <path class="cls-12" d="M66.22,26.01c.03.56-.91.87-1.98,1.22-.97.32-1.51.5-2.01.25-.88-.42-1.31-1.96-.56-2.68.65-.63,1.89-.36,2.26-.28.96.21,2.26.85,2.29,1.49Z"/>
              </g>
            </g>
            <path class="cls-5" d="M72.84,57.46c.17-.51.34-.98.49-1.45.1-.3.23-.71.3-1.16.19-1.32.39-2.68.32-4.15-.08-1.57-.39-3-.93-4.37-.52-1.29-1.2-2.5-2.03-3.59-1.1-1.45-2.49-2.7-4.24-3.84-1.03-.67-2.01-1.18-3-1.56-.41-.16-.82-.3-1.23-.41l-.08-.02c-.58-.16-1.19-.33-1.83-.44,1.88-4.16,4.27-7.23,6.16-9.28-7.22-2.83-14.45-5.66-21.67-8.48-.1,2.82-.54,6.63-1.98,10.87-.24-.14-.48-.27-.7-.4-.15-.08-.29-.16-.43-.24-.42-.24-.87-.45-1.37-.65-.58-.23-1.15-.4-1.58-.52-1.13-.33-2.34-.54-3.7-.66-1.1-.09-2.14-.08-3.16.04-1.75.21-3.39.69-4.87,1.45-1.16.59-2.24,1.36-3.22,2.27-.98.91-1.77,1.87-2.43,2.93-.55.88-1.11,1.84-1.55,2.89-.54,1.29-.95,2.67-1.27,4.22-.24,1.18-.38,2.44-.4,3.74-.03,1.82.1,3.63.41,5.39l.07.37c.19,1.1.39,2.24.7,3.37.54,1.99,1.15,3.9,1.8,5.69.74,2.01,1.6,3.94,2.41,5.75.47,1.04.99,2.04,1.5,3.02l.29.56c.61,1.18,1.29,2.4,2.07,3.74.65,1.1,1.34,2.18,2.01,3.22l.23.35c.64,1,1.35,1.96,2.1,2.85.03.03.05.06.08.09.25.31.66.82,1.38,1.1.12.05.25.09.37.12.65.15,1.21.08,1.58.03,2.02-.27,3.97-.77,5.77-1.27,1.62-.45,3.2-.95,4.66-1.43,1.98-.65,3.87-1.39,5.3-1.97.94-.38,1.86-.81,2.75-1.22.49-.23,1-.46,1.49-.68,1.05-.47,2.04-1.01,2.99-1.54.2-.11.4-.22.61-.33,1.55-.85,3.11-1.86,4.64-3.02,1.44-1.09,2.97-2.27,4.34-3.74,1.23-1.32,2.15-2.48,2.89-3.67.66-1.05,1.18-2.13,1.64-3.09l.02-.04c.03-.07.06-.13.08-.2l.22-.63Z"/>
            <g>
              <path class="cls-7" d="M63.85,30.32c-2.6-1.48-5.71-3.03-9.3-4.42-3.44-1.33-6.64-2.26-9.45-2.92-.18-.07-1.1-.45-1.56-1.5-.29-.66-.33-1.44-.04-2.16h0c.57-1.45,2.21-2.17,3.66-1.6,2.83.66,6.04,1.59,9.5,2.94,3.57,1.39,6.66,2.93,9.25,4.4.18.07,1.1.45,1.56,1.5.29.66.33,1.44.04,2.16h0c-.57,1.45-2.21,2.17-3.66,1.6Z"/>
              <path class="cls-14" d="M51.75,20.03s.02.15-.07.24c-.28.33-1.23-.08-3.04-.58-1.79-.49-2.78-.62-2.88-1.06,0-.03-.03-.13.04-.23.27-.42,1.67-.05,3.1.34,1.49.4,2.78.76,2.84,1.29Z"/>
              <ellipse class="cls-14" cx="44.51" cy="19.69" rx=".87" ry=".47" transform="translate(9.95 53.96) rotate(-68.62)"/>
            </g>
            <path class="cls-4" d="M73.33,56.01c.18-.61.28-1.06.3-1.16.19-1.32.39-2.68.32-4.15-.08-1.57-.39-3-.93-4.37-.52-1.29-1.2-2.5-2.03-3.59-1.1-1.45-2.49-2.7-4.24-3.84-1.03-.67-2.01-1.18-3-1.56-.41-.16-.82-.3-1.23-.41l-.08-.02c-.58-.16-1.19-.33-1.83-.44.47-1.04.97-2.01,1.49-2.92.38-.67.86-1.5,1.59-2.51.18-.25.33-.45.43-.59.26.07.78.17,1.4.03.17-.04.91-.23,1.49-.9.1-.11.29-.35.44-.69.11-.24.24-.64.25-1.14,0-.22-.02-.54-.14-.89-.04-.11-.19-.55-.58-1-.18-.21-.36-.36-.49-.46,1.34-1.91,2.68-3.82,4.02-5.73-.57-.54-1.21-1.1-1.92-1.66-1.04-.82-2.05-1.5-2.98-2.07-.22,1.39-.59,3.02-1.22,4.78-.38,1.08-.81,2.04-1.24,2.9.04.25.3,2.08-.99,3.5-.79.87-1.76,1.14-2.16,1.22-1.6,2.39-3.2,4.79-4.8,7.18,3.96,11.53,2.58,18.78.2,23.43-5.89,11.51-23.92,19.04-23.39,20.01,0,0,.03.03.08.09.25.31.66.82,1.38,1.1.12.05.25.09.37.12.65.15,1.21.08,1.58.03,2.02-.27,3.97-.77,5.77-1.27,1.62-.45,3.2-.95,4.66-1.43,1.98-.65,3.87-1.39,5.3-1.97.94-.38,1.86-.81,2.75-1.22.49-.23,1-.46,1.49-.68,1.05-.47,2.04-1.01,2.99-1.54.2-.11.4-.22.61-.33,1.55-.85,3.11-1.86,4.64-3.02,1.44-1.09,2.97-2.27,4.34-3.74.69-.74,1.78-1.9,2.89-3.67.51-.82,1.68-2.8,2.45-5.41Z"/>
          </g>
        </g>
      </g>
    </g>
  </g>
</svg>